<?xml version="1.0" encoding="UTF-8"?>
<svg width="24px" height="24px" viewBox="0 0 24 24" version="1.1" xmlns="http://www.w3.org/2000/svg" xmlns:xlink="http://www.w3.org/1999/xlink">
    <!-- Generator: Sketch 47.1 (45422) - http://www.bohemiancoding.com/sketch -->
    <title>icon-indicatorLow</title>
    <desc>Created with Sketch.</desc>
    <defs></defs>
    <g id="Symbols" stroke="none" stroke-width="1" fill="none" fill-rule="evenodd">
        <g id="icon-indicatorLow">
            <circle id="Oval" fill="#FFFFFF" cx="12" cy="12" r="12"></circle>
            <path d="M6.49640544,7.97180956 L5.67562,7.10698711 C4.81797,8.21238711 4.24372,9.54868711 4.06189,11.0067871 L5.04183865,11.0067873 L5.04183865,13.0067873 L2,13.0067871 L2,12.0067871 C2,7.16888711 5.43551,3.13338711 9.99999,2.20678711 C9.99999,2.20678711 10.8197536,2 11.9999952,2 C13.1802368,2 13.99999,2.20678711 13.99999,2.20678711 C18.56449,3.13338711 21.99999,7.16888711 21.99999,12.0067871 L21.99999,13.0067871 L18.934515,13.0067873 L18.934515,11.0067873 L19.93809,11.0067871 C19.75629,9.54858711 19.18199,8.21238711 18.32439,7.10698711 L17.5452662,7.97180939 L16.1310662,6.55760939 L16.91149,5.69148711 C15.80379,4.82878711 14.46329,4.25118711 12.99999,4.06868711 L12.9999905,5.09081435 L10.9999905,5.09081435 L10.99999,4.06868711 C9.53673,4.25118711 8.19619,4.82878711 7.08854,5.69148711 L7.91061544,6.55760956 L6.49640544,7.97180956 Z M14.3819008,14.4585057 C13.6008307,15.2395759 12.2582766,15.1633087 11.3831203,14.2881523 C11.131808,14.03684 10.9463074,13.7469705 10.8282277,13.4429216 L8.01794685,8.09455176 L13.366396,10.9049118 C13.6704448,11.0229916 13.9602351,11.2084129 14.2115474,11.4597252 C15.0867038,12.3348815 15.162971,13.6774356 14.3819008,14.4585057 Z" fill="#D0021B"></path>
        </g>
    </g>
</svg>