<?xml version="1.0" encoding="UTF-8"?>
<svg width="24px" height="24px" viewBox="0 0 24 24" version="1.1" xmlns="http://www.w3.org/2000/svg" xmlns:xlink="http://www.w3.org/1999/xlink">
    <!-- Generator: Sketch 47.1 (45422) - http://www.bohemiancoding.com/sketch -->
    <title>icon-indicatorMedium</title>
    <desc>Created with Sketch.</desc>
    <defs></defs>
    <g id="Symbols" stroke="none" stroke-width="1" fill="none" fill-rule="evenodd">
        <g id="icon-indicatorMedium">
            <circle id="Oval" fill="#FFFFFF" cx="12" cy="12" r="12"></circle>
            <path d="M6.49640544,7.97180956 L5.67562,7.10698711 C4.81797,8.21238711 4.24372,9.54868711 4.06189,11.0067871 L5.04183865,11.0067873 L5.04183865,13.0067873 L2,13.0067871 L2,12.0067871 C2,7.16888711 5.43551,3.13338711 9.99999,2.20678711 C9.99999,2.20678711 10.8197536,2 11.9999952,2 C13.1802368,2 13.99999,2.20678711 13.99999,2.20678711 C18.56449,3.13338711 21.99999,7.16888711 21.99999,12.0067871 L21.99999,13.0067871 L18.934515,13.0067873 L18.934515,11.0067873 L19.93809,11.0067871 C19.75629,9.54858711 19.18199,8.21238711 18.32439,7.10698711 L17.5452662,7.97180939 L16.1310662,6.55760939 L16.91149,5.69148711 C15.80379,4.82878711 14.46329,4.25118711 12.99999,4.06868711 L12.9999905,5.09081435 L10.9999905,5.09081435 L10.99999,4.06868711 C9.53673,4.25118711 8.19619,4.82878711 7.08854,5.69148711 L7.91061544,6.55760956 L6.49640544,7.97180956 Z M12,16.99999 C10.8954,16.99999 10,15.9967319 10,14.7590739 C10,14.4036647 10.0738,14.0675272 10.2053,13.7690372 L12,8 L13.7947,13.7691493 C13.9262,14.0676393 14,14.4036647 14,14.7590739 C14,15.9967319 13.1046,16.99999 12,16.99999 Z" fill="#E68100"></path>
        </g>
    </g>
</svg>