<?xml version="1.0" encoding="UTF-8"?>
<svg width="24px" height="24px" viewBox="0 0 24 24" version="1.1" xmlns="http://www.w3.org/2000/svg" xmlns:xlink="http://www.w3.org/1999/xlink">
    <!-- Generator: Sketch 47.1 (45422) - http://www.bohemiancoding.com/sketch -->
    <title>icon-indicatorPerfect</title>
    <desc>Created with Sketch.</desc>
    <defs></defs>
    <g id="Symbols" stroke="none" stroke-width="1" fill="none" fill-rule="evenodd">
        <g id="indicators-perfectScore-v02" transform="translate(-38.000000, -30.000000)"></g>
        <g id="icon-indicatorPerfect">
            <circle id="Oval" fill="#FFFFFF" cx="12" cy="12" r="12"></circle>
            <path d="M6.49640544,7.97355276 L5.67562,7.10847786 C4.81797,8.21420053 4.24372,9.5508906 4.06189,11.0094162 L5.04183865,11.0094164 L5.04183865,13.0100002 L2,13.01 L2,12.0097081 C2,7.17039593 5.43551,3.13371795 9.99999,2.20684747 C9.99999,2.20684747 10.8197536,2 11.9999952,2 C13.1802368,2 13.99999,2.20684747 13.99999,2.20684747 C18.56449,3.13371795 21.99999,7.17039593 21.99999,12.0097081 L21.99999,13.01 L18.934515,13.0100002 L18.934515,11.0094164 L19.93809,11.0094162 C19.75629,9.55079057 19.18199,8.21420053 18.32439,7.10847786 L17.5452662,7.97355258 L16.1310662,6.55893977 L16.91149,5.69256467 C15.80379,4.82961284 14.46329,4.25184424 12.99999,4.06929097 L12.9999905,5.19107623 L10.9999905,5.19107623 L10.99999,4.06929097 C9.53673,4.25184424 8.19619,4.82961284 7.08854,5.69256467 L7.91061544,6.55893994 L6.49640544,7.97355276 Z M9.46805979,11.4945186 C9.29526228,12.5855192 10.1460972,13.6268395 11.3685175,13.8204518 C11.7195511,13.8760501 12.063095,13.8557422 12.3784812,13.7725553 L18.357245,12.9024273 L12.9398764,10.2273292 C12.6656325,10.0507541 12.345289,9.92529673 11.9942554,9.86969847 C10.7718351,9.67608611 9.6408573,10.4035181 9.46805979,11.4945186 Z" id="icon-indicatorHigh" fill="#009B00"></path>
        </g>
    </g>
</svg>